{
	"asset":{
		"generator":"Khronos glTF Blender I/O v4.1.63",
		"version":"2.0"
	},
	"scene":0,
	"scenes":[
		{
			"name":"Scene",
			"nodes":[
				0,
				1,
				2,
				3,
				4,
				5
			]
		}
	],
	"nodes":[
		{
			"mesh":0,
			"name":"Body",
			"rotation":[
				-0.70710688829422,
				0,
				0,
				0.7071066498756409
			],
			"translation":[
				0,
				0.02839966118335724,
				-0.026618003845214844
			]
		},
		{
			"mesh":1,
			"name":"WheelRL",
			"rotation":[
				-0.70710688829422,
				0,
				0,
				0.7071066498756409
			],
			"translation":[
				0.7032260894775391,
				0.3786136507987976,
				-1.1271286010742188
			]
		},
		{
			"mesh":2,
			"name":"WheelRR",
			"rotation":[
				-0.70710688829422,
				0,
				0,
				0.7071066498756409
			],
			"translation":[
				-0.7032260894775391,
				0.3786136507987976,
				-1.1271286010742188
			]
		},
		{
			"mesh":3,
			"name":"WheelFL",
			"rotation":[
				-0.7053843140602112,
				-0.04932529106736183,
				-0.04932527616620064,
				0.7053843140602112
			],
			"translation":[
				0.716336727142334,
				0.33965224027633667,
				1.3094491958618164
			]
		},
		{
			"mesh":4,
			"name":"WheelFR",
			"rotation":[
				-0.705384373664856,
				-0.04932528734207153,
				-0.04932527616620064,
				0.7053842544555664
			],
			"translation":[
				-0.716336727142334,
				0.33965224027633667,
				1.3094491958618164
			]
		},
		{
			"mesh":5,
			"name":"Glass",
			"rotation":[
				-0.70710688829422,
				0,
				0,
				0.7071066498756409
			],
			"translation":[
				0,
				0.02839966118335724,
				-0.026618003845214844
			]
		}
	],
	"materials":[
		{
			"name":"Interior",
			"pbrMetallicRoughness":{
				"baseColorFactor":[
					0.800000011920929,
					0.800000011920929,
					0.800000011920929,
					1
				],
				"baseColorTexture":{
					"index":0
				},
				"metallicRoughnessTexture":{
					"index":1
				}
			}
		},
		{
			"name":"Body",
			"occlusionTexture":{
				"index":2
			},
			"pbrMetallicRoughness":{
				"baseColorFactor":[
					0.800000011920929,
					0.800000011920929,
					0.800000011920929,
					1
				],
				"baseColorTexture":{
					"index":3
				},
				"metallicRoughnessTexture":{
					"index":2
				}
			}
		},
		{
			"name":"Wheels",
			"occlusionTexture":{
				"index":4
			},
			"pbrMetallicRoughness":{
				"baseColorFactor":[
					0.800000011920929,
					0.800000011920929,
					0.800000011920929,
					1
				],
				"baseColorTexture":{
					"index":5
				},
				"metallicRoughnessTexture":{
					"index":4
				}
			}
		},
		{
			"name":"Glass",
			"pbrMetallicRoughness":{
				"baseColorFactor":[
					0.800000011920929,
					0.800000011920929,
					0.800000011920929,
					1
				],
				"baseColorTexture":{
					"index":6
				},
				"metallicRoughnessTexture":{
					"index":7
				}
			}
		}
	],
	"meshes":[
		{
			"name":"Body",
			"primitives":[
				{
					"attributes":{
						"POSITION":0,
						"NORMAL":1,
						"TEXCOORD_0":2
					},
					"indices":3,
					"material":0
				},
				{
					"attributes":{
						"POSITION":4,
						"NORMAL":5,
						"TEXCOORD_0":6
					},
					"indices":7,
					"material":1
				}
			]
		},
		{
			"name":"WheelRL",
			"primitives":[
				{
					"attributes":{
						"POSITION":8,
						"NORMAL":9,
						"TEXCOORD_0":10
					},
					"indices":11,
					"material":2
				}
			]
		},
		{
			"name":"WheelRR",
			"primitives":[
				{
					"attributes":{
						"POSITION":12,
						"NORMAL":13,
						"TEXCOORD_0":14
					},
					"indices":15,
					"material":2
				}
			]
		},
		{
			"name":"WheelFL",
			"primitives":[
				{
					"attributes":{
						"POSITION":16,
						"NORMAL":17,
						"TEXCOORD_0":18
					},
					"indices":19,
					"material":2
				}
			]
		},
		{
			"name":"WheelFR",
			"primitives":[
				{
					"attributes":{
						"POSITION":20,
						"NORMAL":21,
						"TEXCOORD_0":22
					},
					"indices":23,
					"material":2
				}
			]
		},
		{
			"name":"Glass",
			"primitives":[
				{
					"attributes":{
						"POSITION":24,
						"NORMAL":25,
						"TEXCOORD_0":26
					},
					"indices":27,
					"material":3
				}
			]
		}
	],
	"textures":[
		{
			"sampler":0,
			"source":0
		},
		{
			"sampler":0,
			"source":1
		},
		{
			"sampler":0,
			"source":2
		},
		{
			"sampler":0,
			"source":3
		},
		{
			"sampler":0,
			"source":4
		},
		{
			"sampler":0,
			"source":5
		},
		{
			"sampler":0,
			"source":6
		},
		{
			"sampler":0,
			"source":7
		}
	],
	"images":[
		{
			"mimeType":"image/jpeg",
			"name":"Image_1",
			"uri":"Image_1.jpg"
		},
		{
			"mimeType":"image/jpeg",
			"name":"Image_0",
			"uri":"Image_0.jpg"
		},
		{
			"mimeType":"image/png",
			"name":"Image_3-Image_2",
			"uri":"Image_3-Image_2.png"
		},
		{
			"mimeType":"image/jpeg",
			"name":"Image_4",
			"uri":"Image_4.jpg"
		},
		{
			"mimeType":"image/png",
			"name":"Image_6-Image_5",
			"uri":"Image_6-Image_5.png"
		},
		{
			"mimeType":"image/jpeg",
			"name":"Image_7",
			"uri":"Image_7.jpg"
		},
		{
			"mimeType":"image/jpeg",
			"name":"Image_9",
			"uri":"Image_9.jpg"
		},
		{
			"mimeType":"image/jpeg",
			"name":"Image_8",
			"uri":"Image_8.jpg"
		}
	],
	"accessors":[
		{
			"bufferView":0,
			"componentType":5126,
			"count":1028,
			"max":[
				0.7636280655860901,
				1.311888575553894,
				1.2758208513259888
			],
			"min":[
				-0.7636280655860901,
				-0.6617040634155273,
				0.2785170078277588
			],
			"type":"VEC3"
		},
		{
			"bufferView":1,
			"componentType":5126,
			"count":1028,
			"type":"VEC3"
		},
		{
			"bufferView":2,
			"componentType":5126,
			"count":1028,
			"type":"VEC2"
		},
		{
			"bufferView":3,
			"componentType":5123,
			"count":1890,
			"type":"SCALAR"
		},
		{
			"bufferView":4,
			"componentType":5126,
			"count":4392,
			"max":[
				0.966627836227417,
				1.875124454498291,
				1.317612648010254
			],
			"min":[
				-0.966627836227417,
				-2.2047512531280518,
				0.14671389758586884
			],
			"type":"VEC3"
		},
		{
			"bufferView":5,
			"componentType":5126,
			"count":4392,
			"type":"VEC3"
		},
		{
			"bufferView":6,
			"componentType":5126,
			"count":4392,
			"type":"VEC2"
		},
		{
			"bufferView":7,
			"componentType":5123,
			"count":7800,
			"type":"SCALAR"
		},
		{
			"bufferView":8,
			"componentType":5126,
			"count":826,
			"max":[
				0.24673867225646973,
				0.35241958498954773,
				0.35241952538490295
			],
			"min":[
				-0.00547260046005249,
				-0.3524196147918701,
				-0.3524196445941925
			],
			"type":"VEC3"
		},
		{
			"bufferView":9,
			"componentType":5126,
			"count":826,
			"type":"VEC3"
		},
		{
			"bufferView":10,
			"componentType":5126,
			"count":826,
			"type":"VEC2"
		},
		{
			"bufferView":11,
			"componentType":5123,
			"count":1200,
			"type":"SCALAR"
		},
		{
			"bufferView":12,
			"componentType":5126,
			"count":817,
			"max":[
				0.00547260046005249,
				0.35241958498954773,
				0.35241952538490295
			],
			"min":[
				-0.24673867225646973,
				-0.3524196147918701,
				-0.3524196445941925
			],
			"type":"VEC3"
		},
		{
			"bufferView":13,
			"componentType":5126,
			"count":817,
			"type":"VEC3"
		},
		{
			"bufferView":14,
			"componentType":5126,
			"count":817,
			"type":"VEC2"
		},
		{
			"bufferView":15,
			"componentType":5123,
			"count":1200,
			"type":"SCALAR"
		},
		{
			"bufferView":16,
			"componentType":5126,
			"count":834,
			"max":[
				0.20300650596618652,
				0.31385424733161926,
				0.31385424733161926
			],
			"min":[
				-0.005574643611907959,
				-0.31385427713394165,
				-0.31385427713394165
			],
			"type":"VEC3"
		},
		{
			"bufferView":17,
			"componentType":5126,
			"count":834,
			"type":"VEC3"
		},
		{
			"bufferView":18,
			"componentType":5126,
			"count":834,
			"type":"VEC2"
		},
		{
			"bufferView":19,
			"componentType":5123,
			"count":1200,
			"type":"SCALAR"
		},
		{
			"bufferView":20,
			"componentType":5126,
			"count":832,
			"max":[
				0.005574643611907959,
				0.31385424733161926,
				0.3138542175292969
			],
			"min":[
				-0.20300650596618652,
				-0.31385427713394165,
				-0.31385430693626404
			],
			"type":"VEC3"
		},
		{
			"bufferView":21,
			"componentType":5126,
			"count":832,
			"type":"VEC3"
		},
		{
			"bufferView":22,
			"componentType":5126,
			"count":832,
			"type":"VEC2"
		},
		{
			"bufferView":23,
			"componentType":5123,
			"count":1200,
			"type":"SCALAR"
		},
		{
			"bufferView":24,
			"componentType":5126,
			"count":260,
			"max":[
				0.8748535513877869,
				1.706344723701477,
				1.2698460817337036
			],
			"min":[
				-0.8748535513877869,
				-1.9968050718307495,
				0.6310759782791138
			],
			"type":"VEC3"
		},
		{
			"bufferView":25,
			"componentType":5126,
			"count":260,
			"type":"VEC3"
		},
		{
			"bufferView":26,
			"componentType":5126,
			"count":260,
			"type":"VEC2"
		},
		{
			"bufferView":27,
			"componentType":5123,
			"count":636,
			"type":"SCALAR"
		}
	],
	"bufferViews":[
		{
			"buffer":0,
			"byteLength":12336,
			"byteOffset":0,
			"target":34962
		},
		{
			"buffer":0,
			"byteLength":12336,
			"byteOffset":12336,
			"target":34962
		},
		{
			"buffer":0,
			"byteLength":8224,
			"byteOffset":24672,
			"target":34962
		},
		{
			"buffer":0,
			"byteLength":3780,
			"byteOffset":32896,
			"target":34963
		},
		{
			"buffer":0,
			"byteLength":52704,
			"byteOffset":36676,
			"target":34962
		},
		{
			"buffer":0,
			"byteLength":52704,
			"byteOffset":89380,
			"target":34962
		},
		{
			"buffer":0,
			"byteLength":35136,
			"byteOffset":142084,
			"target":34962
		},
		{
			"buffer":0,
			"byteLength":15600,
			"byteOffset":177220,
			"target":34963
		},
		{
			"buffer":0,
			"byteLength":9912,
			"byteOffset":192820,
			"target":34962
		},
		{
			"buffer":0,
			"byteLength":9912,
			"byteOffset":202732,
			"target":34962
		},
		{
			"buffer":0,
			"byteLength":6608,
			"byteOffset":212644,
			"target":34962
		},
		{
			"buffer":0,
			"byteLength":2400,
			"byteOffset":219252,
			"target":34963
		},
		{
			"buffer":0,
			"byteLength":9804,
			"byteOffset":221652,
			"target":34962
		},
		{
			"buffer":0,
			"byteLength":9804,
			"byteOffset":231456,
			"target":34962
		},
		{
			"buffer":0,
			"byteLength":6536,
			"byteOffset":241260,
			"target":34962
		},
		{
			"buffer":0,
			"byteLength":2400,
			"byteOffset":247796,
			"target":34963
		},
		{
			"buffer":0,
			"byteLength":10008,
			"byteOffset":250196,
			"target":34962
		},
		{
			"buffer":0,
			"byteLength":10008,
			"byteOffset":260204,
			"target":34962
		},
		{
			"buffer":0,
			"byteLength":6672,
			"byteOffset":270212,
			"target":34962
		},
		{
			"buffer":0,
			"byteLength":2400,
			"byteOffset":276884,
			"target":34963
		},
		{
			"buffer":0,
			"byteLength":9984,
			"byteOffset":279284,
			"target":34962
		},
		{
			"buffer":0,
			"byteLength":9984,
			"byteOffset":289268,
			"target":34962
		},
		{
			"buffer":0,
			"byteLength":6656,
			"byteOffset":299252,
			"target":34962
		},
		{
			"buffer":0,
			"byteLength":2400,
			"byteOffset":305908,
			"target":34963
		},
		{
			"buffer":0,
			"byteLength":3120,
			"byteOffset":308308,
			"target":34962
		},
		{
			"buffer":0,
			"byteLength":3120,
			"byteOffset":311428,
			"target":34962
		},
		{
			"buffer":0,
			"byteLength":2080,
			"byteOffset":314548,
			"target":34962
		},
		{
			"buffer":0,
			"byteLength":1272,
			"byteOffset":316628,
			"target":34963
		}
	],
	"samplers":[
		{
			"magFilter":9729,
			"minFilter":9987
		}
	],
	"buffers":[
		{
			"byteLength":317900,
			"uri":"car.bin"
		}
	]
}
